<svg version="1.1" xmlns="http://www.w3.org/2000/svg" viewBox="0 0 301.68856447688904 320.55555555555554" width="301.68856447688904" height="320.55555555555554">
  <!-- svg-source:excalidraw -->
  
  <defs>
    <style>
      @font-face {
        font-family: "Virgil";
        src: url("https://excalidraw.com/Virgil.woff2");
      }
      @font-face {
        font-family: "Cascadia";
        src: url("https://excalidraw.com/Cascadia.woff2");
      }
    </style>
  </defs>
  <g><g transform="translate(26.730137023509542 93.9044728613037) rotate(0 61.29302029815358 -34.937639629832745)"><path d="M0.6818320352584122 1.5141739588230845 C21.403124890628085 -10.486276892073237, 104.09809372227701 -59.490627301470845, 124.97859538400247 -71.38945321848858 M-2.392554787695408 -0.13215684503316893 C17.850781509605667 -11.733622224998753, 101.32952681286942 -55.49057798123499, 122.46436243878378 -67.92795186950136" stroke="#862e9c" stroke-width="4" fill="none"></path></g></g><g transform="translate(135.92619626926353 9.999999999999943) rotate(0 15.356853203568562 15.356853203568477)"><path d="M9.26214956072575 2.936720149491064 C11.700388526574635 1.2530573532719442, 13.644644605379838 0.5045636997842337, 16.790335392622886 0.6376185539995554 C19.936026179865934 0.7706734082148771, 26.067512140171207 1.583717743773958, 28.13629428418404 3.7350492747829946 C30.20507642819687 5.886380805792031, 29.53626601851499 9.626225744398615, 29.20302825669988 13.545607740053775 C28.86979049488477 17.464989735708937, 28.12334464515785 24.195656294929798, 26.136867713293377 27.251341248713956 C24.150390781428904 30.307026202498115, 20.71117485588937 31.70978587711077, 17.28416666551304 31.87971746275872 C13.85715847513671 32.04964904840667, 8.504048697403498 30.246835569118083, 5.574818571035397 28.27093076260165 C2.645588444667297 26.29502595608522, 0.4576023721584649 22.920590421284892, -0.2912140926955633 20.02428862366012 C-1.0400305575495916 17.127986826035347, -2.6631851992528497 13.947375245839094, 1.0819197819112283 10.893119976853006 C4.827024763075306 7.838864707866918, 17.754984489389994 2.0126033203087856, 22.179415794288904 1.698757009743595 C26.603847099187814 1.384910699178404, 28.268447647494035 9.129247128280442, 27.62850761130469 9.01004211346186 M29.633841582197974 3.1958648588539624 C32.65291777302421 6.206746224106766, 34.31661383082074 14.013645094316963, 33.61392123783063 17.700910155324692 C32.91122864484052 21.38817521633242, 28.066998916071338 22.864118500947974, 25.417686024257286 25.31945522490033 C22.768373132443234 27.774791948852688, 20.77643907182898 31.643862098096932, 17.71804388694631 32.43293049903884 C14.65964870206364 33.22199889998075, 10.253806581931592 32.50727643566004, 7.067314914961259 30.053865630551783 C3.8808232479909273 27.600454825443528, -0.8049344397592008 20.92341664599391, -1.4009061148756814 17.712465668389296 C-1.996877789992162 14.501514690784681, 1.550152413215401 13.490813601577381, 3.4914848642623753 10.788159764924096 C5.432817315309349 8.08550592827081, 7.418510125637079 3.232688315530474, 10.247088591406165 1.49654264846958 C13.07566705717525 -0.23960301859131405, 17.326379264982933 0.06789215743362015, 20.462955658876893 0.37128576255873114 C23.599532052770854 0.6746793676838421, 27.694373359315875 2.164692329151846, 29.06654695476992 3.316904279220246 C30.438720550223962 4.469116229288646, 29.259603158251053 7.128459227479074, 28.695997231601154 7.284557462969131" stroke="none" stroke-width="0" fill="#be4bdb"></path><path d="M18.25902781109955 1.1269326864114948 C21.381377665916126 1.899707207394958, 25.658312236686317 4.897039759080926, 27.99042974456418 7.273271872552531 C30.322547252442046 9.649503986024136, 32.35061816650013 12.535302514331397, 32.251732858366736 15.38432536724113 C32.152847550233346 18.233348220150866, 29.84851156706386 21.536104238339572, 27.39711789576384 24.367408990010937 C24.945724224463824 27.1987137416823, 20.612977141611747 31.972161195685096, 17.543370830566637 32.37215387726932 C14.473764519521527 32.77214655885354, 11.675540965105752 28.977475703714344, 8.979480029493182 26.767365079516267 C6.283419093880612 24.55725445531819, 2.753415398850259 22.143572439376808, 1.3670052168912168 19.111490132080867 C-0.019404965067825186 16.079407824784926, -0.2465082675088507 11.42738920124857, 0.6610189377389304 8.574871235740625 C1.5685461429867114 5.722353270232681, 3.065942278016653 3.1014893670989645, 6.8121684483779035 1.996382339033202 C10.558394618739154 0.8912753109674398, 19.382923242213675 0.8691247698985256, 23.138375959906433 1.9442290673460523 C26.893828677599192 3.019333364793579, 29.39641809861028 8.024766752490097, 29.344884754534455 8.447008123718362 M11.805423763420926 -1.768238977550478 C14.720366274378167 -3.9144017456343527, 19.591778619115814 -3.8069644145227164, 21.94812255058725 -1.8249993755943343 C24.304466482058686 0.1569656633340475, 24.47387094912799 7.2172721637060775, 25.943487352249534 10.123551256019812 C27.41310375537108 13.029830348333547, 31.17671464360815 12.474965081008836, 30.76582096931653 15.612675178288075 C30.354927295024908 18.750385275567314, 25.869666910407673 26.177242658559187, 23.47812530649981 28.94981183969525 C21.086583702591945 31.722381020831314, 19.693211399068645 32.53434704308749, 16.416571345869347 32.24809026510445 C13.13993129267005 31.96183348712141, 6.820559709814528 29.795329071044243, 3.8182849873040325 27.23227117179701 C0.8160102647935368 24.669213272549776, -0.7787039321359609 20.336960499137938, -1.597076989193626 16.869742869621053 C-2.415450046251291 13.402525240104168, -2.958119326467898 9.189993910532062, -1.0919533550419587 6.428965394695706 C0.7742126163839804 3.6679368788593503, 7.428219580883086 1.0230987315414284, 9.599918839362008 0.3035717746029203 C11.77161809784093 -0.4159551823355877, 12.076334458907539 1.4621914794756692, 11.93824219583157 2.1118036530646584" stroke="#862e9c" stroke-width="1" fill="none"></path></g><g transform="translate(10.000000000000455 78.00892133008887) rotate(0 15.356853203568562 15.356853203568477)"><path d="M15.643876049244788 0.4703823972794581 C18.682784718316235 0.14526105650387322, 25.111424955120324 0.8838185787982138, 27.365552804358686 2.870009085306183 C29.619680653597047 4.8561995918141525, 29.25374725454586 8.475510881994547, 29.168643144674963 12.387525436327273 C29.083539034804065 16.29953999066, 28.646587971777944 23.13255800798743, 26.854928145133307 26.342096411302546 C25.06326831848867 29.55163481461766, 21.795348905371323 31.23173966911183, 18.41868418480714 31.644755856217962 C15.042019464242959 32.0577720433241, 9.641856382742303 30.577524573677074, 6.594939821748214 28.820193533939353 C3.548023260754124 27.06286249420163, 1.1166508320602295 23.90528157796976, 0.13718481884260747 21.10076961779163 C-0.8422811943750147 18.296257657613502, -0.6795919262682366 14.937846566746368, 0.7181437424424804 11.993121772870577 C2.1158794111531973 9.048396978994786, 5.187360441622985 5.273259597758238, 8.52359883110691 3.4324208545368826 C11.859837220590833 1.591582111315527, 17.974955353717704 0.8331047028955817, 20.735574079346023 0.9480893135424431 C23.496192804974342 1.0630739241893046, 24.621583042546156 4.048434098976712, 25.087311184876825 4.122328518418051 M8.108490036185326 5.836777620346554 C9.694777720923751 4.020838933269501, 10.69476425851359 -0.06657631425924808, 13.5055095760464 -0.1635727320768119 C16.31625489357921 -0.2605691498943757, 22.208101756566514 2.9112735676050767, 24.972961941382188 5.254799113441171 C27.737822126197862 7.5983246592772655, 29.819475727617306 11.417091690452526, 30.094670684940446 13.897580542939757 C30.369865642263587 16.378069395426987, 27.739747125417235 17.343967519648054, 26.624131685321025 20.137732228364555 C25.508516245224815 22.931496937081057, 25.71747265473797 29.096964121456242, 23.400978044363182 30.660168795238775 C21.084483433988392 32.223373469021304, 15.90031131265097 30.722147210339436, 12.725164023072285 29.516960271059745 C9.5500167334936 28.311773331780053, 6.153932357364248 26.5780360989867, 4.350094306891073 23.429047159560614 C2.546256256417898 20.280058220134528, 1.493426348509038 13.665030519311602, 1.9021357202332378 10.623026634503233 C2.3108450919574377 7.581022749694865, 6.293909359190745 6.67955206188864, 6.802350537236272 5.177023850710404 C7.310791715281799 3.674495639532167, 4.631857857093209 1.8107994074943583, 4.952782788506399 1.6078573674338124" stroke="none" stroke-width="0" fill="#be4bdb"></path><path d="M10.437129039082507 2.9842351020875615 C13.46159640922083 1.4805072121968985, 18.539436281140386 0.25706107312908577, 21.56206408808091 0.8156883803078632 C24.584691895021432 1.3743156874866407, 27.16083389802318 3.252769019996975, 28.572895880725646 6.335998945160226 C29.98495786342811 9.419228870323476, 30.30639794044433 16.2387079455017, 30.034435984295705 19.315067931287366 C29.76247402814708 22.39142791707303, 29.21440090966568 23.155762055306504, 26.941124143833886 24.794158859874216 C24.66784737800209 26.432555664441928, 19.931086998361994 28.95764290997474, 16.394775389304936 29.14544875869363 C12.85846378024788 29.333254607412517, 8.532351536988525 27.688864487701736, 5.72325448949154 25.92099395218755 C2.9141574419945546 24.153123416673367, 0.3705083729492019 21.62614281865185, -0.45980689567697297 18.53822554560852 C-1.2901221643031477 15.450308272565186, -3.0000209587561115 10.203701655090864, 0.7413628777344901 7.393490313927555 C4.482746714225092 4.583278972764246, 17.338244357386916 1.3010659516570002, 21.988496123266636 1.6769574986286688 C26.638747889146355 2.0528490456003374, 29.019831621981425 9.367060585468655, 28.64287347301281 9.648839595757567 M27.594188988130597 1.521530024856263 C29.246869683765283 4.457637609781351, 27.974788699848027 12.944270741981901, 28.11751753814881 16.316363056489163 C28.260246376449594 19.688455370996426, 30.177329505555704 19.11244707034183, 28.450562017935304 21.754083911899833 C26.723794530314905 24.395720753457837, 20.837602296606097 30.619456468745042, 17.75691261242641 32.166184105837196 C14.676222928246728 33.71291174292935, 12.983026267484398 32.70273146263302, 9.966423912857204 31.034449734452764 C6.94982155823001 29.36616800627251, 1.5720242589167068 25.611095158659708, -0.3427015153367563 22.156493736755667 C-2.257427289590219 18.701892314851627, -2.1097416338981847 13.757957805008111, -1.5219307326635754 10.30684120302851 C-0.9341198314289659 6.855724601048909, 0.2511480543963014 3.2946109127107235, 3.1841638920709006 1.4497941248780553 C6.1171797297455 -0.39502266295461275, 11.94502391127281 -1.3311650814577747, 16.07616429338402 -0.7620595239674977 C20.207304675495234 -0.19295396647722074, 26.6269050336546 3.7312686755147144, 27.971006184738183 4.8644274698197165 C29.315107335821764 5.997586264124719, 24.537573395376413 5.704488786808273, 24.140771199885513 6.036893241862513" stroke="#862e9c" stroke-width="1" fill="none"></path></g><g transform="translate(260.09732360097496 65.7234387672334) rotate(0 15.356853203568562 15.356853203568477)"><path d="M23.252627634332214 -0.1781423640671349 C26.102057948397636 0.6774671343373483, 26.995616702343277 3.7520199119001854, 27.97727365731724 7.408768617888863 C28.958930612291205 11.06551732387754, 29.952961080468874 18.06265565821353, 29.142569364176005 21.76234987186493 C28.332177647883135 25.462044085516332, 26.054959178679407 28.187689594805896, 23.114923359560027 29.606933899797262 C20.174887540440647 31.02617820478863, 14.861584833491714 30.983671635455032, 11.502354449459727 30.277815701813125 C8.14312406542774 29.57195976817122, 4.854128507325381 27.571585051803904, 2.9595410553681045 25.371798297945816 C1.064953603410828 23.172011544087727, -0.1731723681814354 20.148802310805312, 0.13482973771606765 17.079095178664595 C0.4428318436135707 14.009388046523878, 3.134197993647769 9.865254031315114, 4.807553690753123 6.953555505101514 C6.4809093878584765 4.041856978887914, 6.177452519440406 -1.0532303058714931, 10.17496392034819 -0.3910959786170096 C14.172475321255975 0.271038348637474, 25.70369948303029 6.980419658712245, 28.792622096199835 10.926361468628416 C31.88154470936938 14.872303278544587, 28.93227048546032 22.75515243421559, 28.708499599365446 23.284554880880016 M2.3250406413129916 5.06948576382193 C3.758647984918573 2.571486736016397, 9.598713112383082 2.2891886994561466, 13.044480680536715 2.0768875930090616 C16.490248248690346 1.8645864865619766, 20.559992071032664 2.8353882478553785, 22.999646050234784 3.7956791251394204 C25.439300029436904 4.755970002423463, 26.16278376704534 4.818119918403882, 27.682404555749436 7.838632856713314 C29.20202534445353 10.859145795022746, 32.56090827595655 18.48795566347684, 32.11737078245935 21.918756754996018 C31.673833288962157 25.349557846515197, 27.9620263299768 26.99405085910888, 25.021179594766252 28.423439405828397 C22.080332859555703 29.852827952547912, 17.790116263160023 31.4752695704215, 14.47229037119607 30.495088035313117 C11.154464479232118 29.514906500204734, 7.2593793714738855 24.89612384543994, 5.114224242982537 22.542350195178102 C2.9690691144911887 20.188576544916263, 1.8952592183259311 19.666115081394853, 1.601359600247978 16.37244613374208 C1.3074599821700248 13.078777186089306, 2.5269233033069445 4.773667894528669, 3.350826534514818 2.7803365092614616 C4.174729765722691 0.7870051239942548, 6.402272502441222 3.52086486732702, 6.544778987495217 4.41245782213884" stroke="none" stroke-width="0" fill="#be4bdb"></path><path d="M23.60405521032891 1.6323688173149637 C26.389366994755726 2.3802767626130277, 28.61541716933059 4.968265236143278, 29.61219976684046 8.274179048204418 C30.608982364350332 11.580092860265559, 30.317973660280213 18.487842393125923, 29.58475079538813 21.467851689681808 C28.851527930496044 24.447860986237693, 27.777552670069028 24.886139730020222, 25.21286257748796 26.154234827539728 C22.648172484906894 27.422329925059234, 17.718132059429514 29.35960086677368, 14.19661023990172 29.07642227479885 C10.675088420373926 28.793243682824023, 6.578756108901325 26.57432213133459, 4.083731660321197 24.455163275690765 C1.5887072117410694 22.33600442004694, -0.409618531695996 19.516606904421344, -0.7735364515790462 16.361469140935906 C-1.1374543714620964 13.20633137745047, -0.32072612101501585 8.077292443308108, 1.9002241410228962 5.524336694778141 C4.121174403060808 2.9713809462481726, 8.3029382211558 0.8204364523573494, 12.552165120648427 1.0437346497560984 C16.80139202014105 1.2670328471548473, 24.565324332772043 4.648394028999586, 27.395585537978654 6.8641258791706345 C30.225846743185265 9.079857729341683, 29.417198453906373 14.02798224838378, 29.533732351888084 14.338125750782385 M0.36938420943426387 9.276606101766324 C1.7653189448898807 6.723499174779727, 8.469006746060412 -0.5315991137900301, 11.719327220249498 -1.474839079801594 C14.969647694438585 -2.418079045813158, 16.83501176853159 1.6174031521383874, 19.871307054568778 3.6171663056969408 C22.907602340605965 5.616929459255494, 28.559024562755425 7.91305408231117, 29.93709893647263 10.523739841549727 C31.315173310189834 13.134425600788283, 29.438428667237307 16.633159267450807, 28.13975329687201 19.28128086112828 C26.84107792650671 21.929402454805754, 25.008068564231163 24.79263938505195, 22.14504671428083 26.412469403614555 C19.2820248643305 28.03229942217716, 13.931639269739986 29.178659815879467, 10.961622197170025 29.000260972503927 C7.9916051246000634 28.821862129128387, 5.7869422624475035 27.290816993882984, 4.324944278861068 25.342076343361317 C2.8629462952746323 23.39333569283965, 2.6818000020648856 20.17619117749782, 2.1896342956514125 17.30781706937393 C1.6974685892379398 14.439442961250037, 1.085342672045236 9.644223221850774, 1.3719500403802307 8.131831694617967 C1.6585574087152255 6.61944016738516, 3.7121234261689344 8.427885205238097, 3.9092785056613817 8.233467905977086" stroke="#862e9c" stroke-width="1" fill="none"></path></g><g transform="translate(15.265206812649467 215.78183292781807) rotate(0 15.356853203568562 15.356853203568448)"><path d="M16.764749487682938 -1.6550527666949897 C19.564177615599345 -0.6244846391518866, 24.157846104074522 4.50413994601838, 26.379389613112807 7.611788257229726 C28.60093312215109 10.719436568441072, 30.330889459316253 14.076235873002256, 30.094010541912642 16.99083710057309 C29.85713162450903 19.905438328143923, 27.207805071178125 22.922185931813587, 24.95811610869114 25.099395622654725 C22.708427146204155 27.276605313495864, 19.493705039894017 29.332126120492312, 16.595876766990735 30.054095245619926 C13.69804849408745 30.77606437074754, 9.909739898910555 30.907593419549766, 7.571146471271435 29.431210373420406 C5.232553043632315 27.954827327291046, 3.9425392864031252 24.588137249689822, 2.5643162011560126 21.195796968843766 C1.1860931159089 17.80345668799771, -1.3199318982547563 12.510601700123761, -0.6981920402112394 9.077168688344077 C-0.07645218216772243 5.643735676564393, 2.232389544681592 2.149626330764641, 6.294755349417114 0.5951988981656609 C10.357121154152637 -0.9592285344333191, 20.81537134263911 -1.0257012983170104, 23.676002788201895 -0.2493959072498022 C26.53663423376468 0.5269094838174059, 24.149469198849516 4.414273812688518, 23.45854402279383 5.253031244568909 M24.89363534759871 5.1918637531505 C27.664112794678122 7.262565973182156, 29.777906950049697 11.322242704975618, 30.074357058387058 13.798379108310744 C30.37080716672442 16.27451551164587, 27.76887134701022 17.24458908621772, 26.67233599762287 20.04868217316125 C25.57580064823552 22.85277526010478, 25.80366232852852 29.0395565135428, 23.49514496206297 30.62293762997193 C21.186627595597418 32.20631874640106, 16.003237332380962 30.733572085700082, 12.821231798829569 29.54896887173603 C9.639226265278177 28.364365657771977, 6.225434494506726 26.652947631466834, 4.403111760754619 23.51531834618762 C2.5807890270025124 20.377689060908406, 1.5000479584373005 13.76837677031483, 1.8872953963169277 10.723193160060749 C2.274542834196555 7.678009549806667, 4.636133336904731 7.439739397683418, 6.726596388032382 5.2442166846631295 C8.817059439160033 3.0486939716428405, 10.989511691234348 -1.953822029991102, 14.430073703082833 -2.4499431180609843 C17.870635714931318 -2.9460642061308664, 25.788838569608608 0.9563964389892925, 27.369968459123292 2.267490156243836 C28.951098348637977 3.5785838734983795, 24.150839087910434 5.087531886599411, 23.916853040170935 5.416619185466278" stroke="none" stroke-width="0" fill="#be4bdb"></path><path d="M27.78769546294364 5.209202729806954 C29.496875507134337 7.874377661740797, 30.136101928692565 14.844505092056023, 30.157228213389864 17.947174852317527 C30.178354498087163 21.04984461257903, 29.98012291576241 21.978276540510752, 27.91445317112744 23.82522129137598 C25.84878342649247 25.672166042241205, 21.2745371856024 28.547833292495664, 17.76320974558004 29.02884335750889 C14.251882305557674 29.509853422522117, 9.824914631977121 28.238485242084373, 6.8464885309932555 26.711281681455333 C3.8680624300093904 25.184078120826292, 1.0073797383021577 22.87802028556628, -0.1073468603231511 19.865621993734653 C-1.2220734589484599 16.853223701903026, -1.3959173428082288 11.56311341586204, 0.15812893924140248 8.636891930465566 C1.7121752212910337 5.710670445069093, 6.201426185995233 3.611758511214161, 9.216930831974636 2.3082930813558153 C12.23243547795404 1.0048276514974697, 14.8530809387295 -2.0440803248205466, 18.251156815117824 0.8160993513154917 C21.649232691506146 3.67627902745153, 28.659914965019862 14.59547913459648, 29.605386090304577 19.469371138172043 C30.550857215589293 24.343263141747606, 24.365132765355856 30.05877264037266, 23.92398356682611 30.05945137276886 M3.855584096592178 3.4618243661779253 C5.792218137409396 0.8324085997122213, 7.365049946107272 2.3150061119523344, 10.674104236307924 2.3441532603934885 C13.983158526508577 2.3733004088346425, 20.856202393089347 2.3602748295210834, 23.70990983779609 3.6367072568248506 C26.563617282502832 4.913139684128618, 27.106982250848883 7.428204926704474, 27.796348904548374 10.00274782421609 C28.485715558247865 12.577290721727707, 29.13890759048923 16.242610394056737, 27.84610975999304 19.083964641894546 C26.553311929496854 21.925318889732356, 22.59189824909641 25.284209762509715, 20.03956192157124 27.050873311242956 C17.487225594046073 28.817536859976197, 14.924389770403884 29.874202340101586, 12.532091794842021 29.68394593429399 C10.139793819280158 29.493689528486396, 8.020922798231135 28.028617208679087, 5.6857740682000575 25.909334876397388 C3.3506253381689803 23.79005254411569, -1.2728676803191663 20.11340892008739, -1.4788005853444428 16.968251940603807 C-1.6847334903697193 13.823094961120221, 3.8154426213876307 8.990463103773894, 4.450176638048399 7.038392999495876 C5.084910654709168 5.086322895217858, 2.2154991759121505 4.989731440518211, 2.3296035146201675 5.255831314935699" stroke="#862e9c" stroke-width="1" fill="none"></path></g><g transform="translate(260.9748580697519 208.76155717761537) rotate(0 15.356853203568562 15.356853203568448)"><path d="M2.208672763458244 8.016608770564249 C4.08785252433189 5.958206093498331, 8.292358264368005 2.872714655888859, 11.317953602914137 1.7643102970739566 C14.34354894146027 0.655905938259054, 17.526795338004515 0.17369597227528555, 20.362244794735037 1.3661826176748324 C23.19769425146556 2.5586692630743793, 26.700068815085505 5.682938691901347, 28.330650343297265 8.919230169471238 C29.961231871509025 12.155521647041128, 30.631539482242836 17.42342615118546, 30.145733964005604 20.783931483094182 C29.659928445768372 24.144436815002905, 28.48381435568534 27.578381866246218, 25.41581723387387 29.082262160923563 C22.3478201120624 30.586142455600907, 15.557683306168865 30.576089512647005, 11.737751233136796 29.80721325115825 C7.917819160104727 29.038336989669492, 4.150990048545236 27.0335437550682, 2.4962247956814547 24.469004591991016 C0.8414595428176741 21.90446542891383, 0.23312769637981723 18.222093381863335, 1.809159715954113 14.419978272695129 C3.3851917355284087 10.617863163526923, 8.42682547937528 3.1484237895713187, 11.95241691312723 1.6563139369817854 C15.47800834687918 0.1642040843922521, 22.466820553764343 5.633089863011078, 22.96270831846581 5.467319157157929 M14.180132545685026 1.5959173330093446 C16.915873881249226 0.47996828106401535, 19.244896826074363 -1.3914446975886445, 22.340244868819383 0.4844435554789346 C25.435592911564402 2.3603318085465137, 31.25293062340834 9.28442118433907, 32.752220802155136 12.85124685141482 C34.251510980901934 16.41807251849057, 32.87597524603105 19.102982585506602, 31.335985941300155 21.885397557933423 C29.795996636569267 24.667812530360244, 26.626700437536 28.588986047028275, 23.512284973769802 29.545736685975754 C20.397869510003602 30.502487324923234, 15.883862861287282 28.365149210319736, 12.649493158702953 27.6259013916183 C9.415123456118623 26.886653572916863, 6.272150348235794 27.86725381239798, 4.106066758263825 25.11024977376713 C1.9399831682918571 22.35324573513628, -0.8877797308590685 14.746173338253818, -0.34700838112885535 11.083877159833197 C0.19376296860135778 7.421580981412575, 5.002487415756256 4.666366567576498, 7.350694856645104 3.1364727032434008 C9.698902297533952 1.606578838910304, 12.205847898445223 2.415324059418729, 13.742236264204234 1.9045139738346162 C15.278624629963245 1.3937038882505033, 16.17983878981389 0.12362120792953224, 16.56902505119917 0.0716121897387243" stroke="none" stroke-width="0" fill="#be4bdb"></path><path d="M15.501496683905792 1.9179344209508127 C18.80148767084941 1.6772121660817325, 24.407159908273233 0.47652434180394465, 26.99090861509161 2.125588093464742 C29.574657321909985 3.7746518451255398, 30.82645974188673 8.49430393289957, 31.003988924816042 11.812316930915598 C31.181518107745354 15.130329928931626, 30.03227203015516 19.016447979107447, 28.056083712667494 22.033666081560916 C26.07989539517983 25.050884184014386, 22.41492487200475 28.80256884608313, 19.14685901989005 29.91562554563642 C15.878793167775354 31.02868224518971, 11.194987239996907 29.862085684383914, 8.44768859997931 28.712006278880665 C5.700389959961713 27.561926873377416, 4.084266031290944 25.722861992876222, 2.663067179784468 23.01514911261694 C1.2418683282779925 20.307436232357656, -0.512979420856974 15.633302673515907, -0.07950450905954298 12.46572899732496 C0.3539704027378881 9.298155321134015, 0.006410293996387928 4.081590928313527, 5.263916650569055 4.0097070554712655 C10.52142300714172 3.9378231826290047, 28.539293702231042 7.983996638964255, 31.46553363037646 12.034425760271395 C34.39177355852188 16.084854881578536, 23.604189042230587 28.7448821345342, 22.821356219441554 28.312281783314106 M25.70455043395353 8.474749882657727 C27.762376945999456 11.476116347933917, 31.50583657996691 15.095290512937794, 31.283228076323674 17.9944013162211 C31.060619572680437 20.893512119504408, 27.079165050492325 24.02924582703796, 24.368899412094102 25.869414702357567 C21.65863377369588 27.709583577677172, 18.446654980099126 28.941864974022714, 15.021634245934337 29.035414568138744 C11.596613511769549 29.128964162254775, 6.238234056225515 28.139555667648573, 3.8187750071053763 26.430712267053742 C1.399315957985238 24.721868866458912, 0.5613752216288747 21.549591487763898, 0.5048799512135052 18.782354164569767 C0.4483846807981357 16.015116841375637, 2.3691720280497717 12.419227534417784, 3.4798033846131595 9.827288327888953 C4.590434741176548 7.235349121360121, 4.431162325674161 4.523047331531836, 7.168668090593832 3.230718925396779 C9.906173855513504 1.9383905192617228, 16.72477443513151 1.6149877308913938, 19.904837974131187 2.0733178910786147 C23.084901513130863 2.5316480512658357, 24.921809023237074 4.868648833441084, 26.24904932459188 5.980699886520105 C27.576289625946686 7.092750939599126, 27.582653557480075 8.872542669923229, 27.86827978226001 8.74562420955274" stroke="#862e9c" stroke-width="1" fill="none"></path></g><g transform="translate(141.63017031630352 279.84184914841865) rotate(0 15.356853203568562 15.356853203568448)"><path d="M2.094054257665162 8.021352622501952 C3.5242005070842595 4.960828963531606, 6.19556218062568 1.4135745832808233, 9.274378677348913 0.23034690930737156 C12.353195174072146 -0.9528807646660802, 17.222862012520217 -0.6508354640281835, 20.56695323800456 0.921986578661242 C23.911044463488906 2.4948086213506677, 27.44284942483264 6.4796425479391, 29.33892603025499 9.667279165443924 C31.235002635677336 12.854915782948748, 33.075664559634994 17.145306790248824, 31.943412870538644 20.04780628369018 C30.811161181442294 22.950305777131533, 25.781496028319822 25.535474742671536, 22.54541589567689 27.082276126092054 C19.309335763033957 28.629077509512573, 15.222929691181282 29.743948962179296, 12.526932074681044 29.328614584213284 C9.830934458180806 28.913280206247272, 8.686530358121871 26.42160590025864, 6.369430196675459 24.590269858295976 C4.052330035229048 22.75893381633331, -0.6944993190842359 21.276957158012152, -1.37566889399743 18.340598332437292 C-2.056838468910624 15.40423950686243, 0.8874459878277721 9.552043311118418, 2.282412747196295 6.972116904846805 C3.677379506564818 4.392190498575193, 6.539482182007988 3.008156438577012, 6.994131662213707 2.8610398948076163 M22.219134601916046 0.39479598551947426 C25.31685421171744 1.9893416571277085, 31.186384905035222 9.145430632063222, 32.71706930239762 12.704724649636962 C34.24775369976001 16.264018667210703, 32.91433967312437 18.953734882041726, 31.403240986090417 21.750560090961912 C29.892142299056463 24.547385299882098, 26.75202386828568 28.499315851529047, 23.650477180193903 29.48567590315808 C20.548930492102127 30.47203595478711, 16.03750506963075 28.37701420383346, 12.793960857539762 27.6687204007361 C9.550416645448774 26.960426597638737, 6.382220437346204 27.975102232594878, 4.189211907647973 25.235913084573916 C1.9962033779497426 22.496723936552954, -0.8727847789692585 14.899541710722076, -0.36409032064961977 11.233585512610333 C0.144604137670019 7.567629314498589, 4.915390925785898 4.793492126338623, 7.2413786575658055 3.240175895903459 C9.567366389345713 1.6868596654682948, 10.38413519985717 2.0020789657074576, 13.591836070029828 1.9136881299993487 C16.799536940202486 1.8252972942912395, 24.46195488982621 2.4868097118673895, 26.487583878601754 2.7098308816548045 C28.513212867377298 2.9328520514422194, 25.889555243788877 2.663424618712837, 25.74561000268309 3.2518151487238374" stroke="none" stroke-width="0" fill="#be4bdb"></path><path d="M10.531016577736283 -0.6677943321515176 C13.484635076383393 -2.6604884111039944, 17.287568116243115 -1.9088470377650635, 20.190531707563945 -0.9077528121240785 C23.093495298884775 0.09334141351690639, 26.347895879982524 2.3445402012494383, 27.948798125661263 5.3387710216943915 C29.549700371340002 8.333001842139344, 30.30902474524868 13.662875197907372, 29.79594518163639 17.05763211054564 C29.2828656180241 20.45238902318391, 26.97382607281903 23.33863708282446, 24.87032074398752 25.707312497524 C22.76681541515601 28.075987912223543, 20.36474977155367 30.86805253865822, 17.17491320864732 31.269684598742884 C13.985076645740977 31.67131665882755, 8.651329947355174 30.03964052784455, 5.731301366549445 28.117104858032004 C2.8112727857437165 26.194569188219457, 0.08682284419080738 22.775546691238045, -0.3452582761870513 19.7344705798676 C-0.77733939656491 16.693394468497157, 0.37788398240059395 12.921737373249755, 3.1388146442822933 9.870648189809346 C5.899745306163993 6.819559006368937, 12.729122551480808 2.5919675766672503, 16.220325695103146 1.42793547922515 C19.71152883872548 0.2639033817830496, 23.500230382794804 2.807068636344113, 24.086033506016314 2.886455605156744 M6.608485522217675 4.720921903774805 C8.979967539465049 2.277935508469717, 11.132269750276242 0.2224375412428478, 13.998978096879664 -0.15927922838560526 C16.865686443483085 -0.5409959980140584, 21.533345842660385 0.45432506634312464, 23.808735601838208 2.4306212860040866 C26.08412536101603 4.4069175056650485, 26.914214122223953 8.30092066462753, 27.65131665194661 11.698498089580166 C28.388419181669263 15.096075514532803, 29.152123630261347 19.64257918918365, 28.231350780174147 22.81608583571991 C27.310577930086946 25.98959248225617, 25.49675984814267 29.33615018886493, 22.12667955142341 30.73953796879772 C18.756599254704152 32.142925748730505, 11.273934181698339 32.34828881833766, 8.010868999858602 31.236412515316644 C4.747803818018864 30.12453621229563, 4.080921326715129 27.32880831526675, 2.5482884603849882 24.06828015067164 C1.0156555940548475 20.807751986076532, -1.8137337819264165 14.785529378564645, -1.1849281981222433 11.673243527745996 C-0.5561226143180701 8.560957676927346, 4.857317538297616 7.108240841444919, 6.321121963210027 5.394565045759748 C7.784926388122438 3.6808892500745767, 7.399916161917385 1.3232627978951763, 7.597898351352219 1.3911887536349656" stroke="#862e9c" stroke-width="1" fill="none"></path></g><g><g transform="translate(-35.250477048508856 198.88213135748362) rotate(117.34577105033091 63.50632756546929 -37.0770199937665)"><path d="M-1.1384383480995892 -0.7575011152774094 C20.199232655666894 -12.368350703763248, 107.49472066761366 -57.71134895556808, 128.15109347903802 -69.33390775731075 M3.43902804940939 -3.637026959359646 C24.633347775665545 -16.07739324874906, 106.57003695710313 -62.82540567612788, 127.35907378541006 -73.39653887225558" stroke="#862e9c" stroke-width="4" fill="none"></path></g></g><g><g transform="translate(33.85568096367342 301.6783440028779) rotate(56.32458169167327 64.2039598176707 -36.71912151645057)"><path d="M2.663664444163442 1.7463842134922745 C23.3200372555878 -9.8761745882504, 102.69219216308308 -58.298124484952695, 122.79979852044656 -70.49285392573346 M0.6651295003294946 0.2261104050278666 C22.24830344411495 -12.232321527672092, 106.36042155011309 -63.730716492892704, 127.74279013501182 -75.18462724639345" stroke="#862e9c" stroke-width="4" fill="none"></path></g></g><g><g transform="translate(155.92158693082956 294.61246106962824) rotate(0 62.92062580552738 -35.41727719306135)"><path d="M-2.6876305144280193 0.5874380450695753 C17.419975842935465 -11.607291395711187, 102.31727990509383 -59.28772988392553, 123.30930258834435 -71.4219924311923 M1.04884584993124 -1.561977969110012 C21.78535155030849 -13.46318745918302, 107.22198549492968 -56.61753625130794, 128.5288821254827 -67.97815522624423" stroke="#862e9c" stroke-width="4" fill="none"></path></g></g><g><g transform="translate(214.42037156668584 189.886847529097) rotate(298.7638276061769 63.14082015123995 -36.27991884946013)"><path d="M-2.178126446530223 -0.3417004603892564 C18.813896236720307 -12.47596300765602, 102.00839942098966 -60.19091140899698, 123.26450558507516 -72.218137238531 M1.8349378404021266 -2.9955059489607816 C23.93597158643367 -14.803423660469335, 108.18542703374038 -58.01101631856104, 128.4597667490102 -69.20649292899537" stroke="#862e9c" stroke-width="4" fill="none"></path></g></g><g><g transform="translate(150.89844650740815 90.4934840132509) rotate(56.653995758652655 61.5677935440915 -36.82145035266066)"><path d="M-2.2229234497994184 -1.137845267727971 C19.033182714286074 -13.165071097261986, 104.26633602978102 -61.06620177501084, 125.35851053798272 -72.50505543759336 M1.765822463929653 -4.223843651711941 C22.834299294677994 -15.86661899871854, 103.02910065873277 -57.92146431183955, 123.0505172477819 -69.64916672183443" stroke="#862e9c" stroke-width="4" fill="none"></path></g></g><g><g transform="translate(153.66550926861464 23.142314161539332) rotate(0 -64.38118949194018 103.49134794588574)"><path d="M-0.1289184968918562 -1.4247634667903184 C-20.719631255519108 33.499453970924634, -105.15602482533315 173.7579353463432, -125.76720000156294 208.40745935856174 M-3.6434270372986797 3.97348255544901 C-24.510760599599994 38.16155250917933, -108.38041922205049 169.8960114031564, -128.63346048698853 204.10756737983593" stroke="#862e9c" stroke-width="4" fill="none"></path></g></g><g><g transform="translate(215.78388591431894 127.57580579612312) rotate(58.29425088525371 -61.09110734113074 104.65690368029664)"><path d="M-1.157305435463786 1.309324727579951 C-21.76848061169358 35.958848739798476, -103.32511890705287 172.35084998724668, -123.79596955427061 206.47238060652086 M3.4099188289046287 -0.44820994466543196 C-17.48898532055489 34.756047295441846, -104.11559294813235 174.92507970626463, -125.59213351116608 209.7620173052586" stroke="#862e9c" stroke-width="4" fill="none"></path></g></g><g><g transform="translate(270.83624532782096 19.532921327614815) rotate(297.2224201520432 -62.53292921085426 102.82942725989406)"><path d="M0.8139250118285415 -0.6257540244609117 C-19.656925635389207 33.49577659481328, -103.27582118884582 171.06767222600985, -123.98240931877028 206.0385084432251 M-2.1887541952729226 -3.4337600192427638 C-22.871157642828145 30.95587884317896, -105.47953361147006 174.38531973178493, -125.879783433537 209.09261453903088" stroke="#862e9c" stroke-width="4" fill="none"></path></g></g></svg>